<svg xmlns="http://www.w3.org/2000/svg" width="1100" height="660" viewBox="0 0 1100 660" role="img" aria-labelledby="title desc">
<title id="title">合成航天公司 概率价格路径</title>
<desc id="desc">Bull、Base、Bear 三情景的价格区间与中位路径，不构成收益承诺。</desc>
<rect width="100%" height="100%" fill="#ffffff"/>
<text x="550.0" y="34.0" font-family="Arial, sans-serif" font-size="22" text-anchor="middle" font-weight="bold">合成航天公司：Bull / Base / Bear 概率路径</text>
<text x="550.0" y="58.0" font-family="Arial, sans-serif" font-size="13" text-anchor="middle" font-weight="normal">分析时点 2026-07-26T12:00:00+10:00；区间不是单点目标价</text>
<line x1="90" y1="570.0" x2="1040" y2="570.0" stroke="#d9d9d9" stroke-width="1"/>
<text x="78.0" y="575.0" font-family="Arial, sans-serif" font-size="12" text-anchor="end" font-weight="normal">66.08</text>
<line x1="90" y1="472.0" x2="1040" y2="472.0" stroke="#d9d9d9" stroke-width="1"/>
<text x="78.0" y="477.0" font-family="Arial, sans-serif" font-size="12" text-anchor="end" font-weight="normal">83.25</text>
<line x1="90" y1="374.0" x2="1040" y2="374.0" stroke="#d9d9d9" stroke-width="1"/>
<text x="78.0" y="379.0" font-family="Arial, sans-serif" font-size="12" text-anchor="end" font-weight="normal">100.42</text>
<line x1="90" y1="276.0" x2="1040" y2="276.0" stroke="#d9d9d9" stroke-width="1"/>
<text x="78.0" y="281.0" font-family="Arial, sans-serif" font-size="12" text-anchor="end" font-weight="normal">117.58</text>
<line x1="90" y1="178.0" x2="1040" y2="178.0" stroke="#d9d9d9" stroke-width="1"/>
<text x="78.0" y="183.0" font-family="Arial, sans-serif" font-size="12" text-anchor="end" font-weight="normal">134.75</text>
<line x1="90" y1="80.0" x2="1040" y2="80.0" stroke="#d9d9d9" stroke-width="1"/>
<text x="78.0" y="85.0" font-family="Arial, sans-serif" font-size="12" text-anchor="end" font-weight="normal">151.92</text>
<line x1="90.0" y1="80" x2="90.0" y2="570" stroke="#eeeeee" stroke-width="1"/>
<text x="90.0" y="595.0" font-family="Arial, sans-serif" font-size="12" text-anchor="middle" font-weight="normal">0</text>
<line x1="280.0" y1="80" x2="280.0" y2="570" stroke="#eeeeee" stroke-width="1"/>
<text x="280.0" y="595.0" font-family="Arial, sans-serif" font-size="12" text-anchor="middle" font-weight="normal">6</text>
<line x1="470.0" y1="80" x2="470.0" y2="570" stroke="#eeeeee" stroke-width="1"/>
<text x="470.0" y="595.0" font-family="Arial, sans-serif" font-size="12" text-anchor="middle" font-weight="normal">12</text>
<line x1="660.0" y1="80" x2="660.0" y2="570" stroke="#eeeeee" stroke-width="1"/>
<text x="660.0" y="595.0" font-family="Arial, sans-serif" font-size="12" text-anchor="middle" font-weight="normal">18</text>
<line x1="850.0" y1="80" x2="850.0" y2="570" stroke="#eeeeee" stroke-width="1"/>
<text x="850.0" y="595.0" font-family="Arial, sans-serif" font-size="12" text-anchor="middle" font-weight="normal">24</text>
<line x1="1040.0" y1="80" x2="1040.0" y2="570" stroke="#eeeeee" stroke-width="1"/>
<text x="1040.0" y="595.0" font-family="Arial, sans-serif" font-size="12" text-anchor="middle" font-weight="normal">30</text>
<polygon points="90.0,353.5 406.7,399.2 1040.0,410.6 1040.0,536.2 406.7,502.0 90.0,399.2" fill="#f9d6d5" fill-opacity="0.55" stroke="none"/>
<polyline points="90.0,376.4 406.7,456.3 1040.0,479.1" fill="none" stroke="#9b2c2c" stroke-width="3"/>
<line x1="790" y1="90" x2="825" y2="90" stroke="#9b2c2c" stroke-width="4"/>
<text x="835.0" y="95.0" font-family="Arial, sans-serif" font-size="13" text-anchor="start" font-weight="normal">BEAR 25%</text>
<polygon points="90.0,353.5 406.7,313.6 1040.0,273.6 1040.0,456.3 406.7,444.9 90.0,399.2" fill="#d7e9f8" fill-opacity="0.55" stroke="none"/>
<polyline points="90.0,376.4 406.7,382.1 1040.0,365.0" fill="none" stroke="#2b6cb0" stroke-width="3"/>
<line x1="790" y1="115" x2="825" y2="115" stroke="#2b6cb0" stroke-width="4"/>
<text x="835.0" y="120.0" font-family="Arial, sans-serif" font-size="13" text-anchor="start" font-weight="normal">BASE 50%</text>
<polygon points="90.0,353.5 406.7,205.1 1040.0,113.8 1040.0,330.7 406.7,365.0 90.0,399.2" fill="#d8f3e5" fill-opacity="0.55" stroke="none"/>
<polyline points="90.0,376.4 406.7,290.8 1040.0,239.4" fill="none" stroke="#2f855a" stroke-width="3"/>
<line x1="790" y1="140" x2="825" y2="140" stroke="#2f855a" stroke-width="4"/>
<text x="835.0" y="145.0" font-family="Arial, sans-serif" font-size="13" text-anchor="start" font-weight="normal">BULL 25%</text>
<line x1="90" y1="570" x2="1040" y2="570" stroke="#333333" stroke-width="1.5"/>
<line x1="90" y1="80" x2="90" y2="570" stroke="#333333" stroke-width="1.5"/>
<text x="565.0" y="625.0" font-family="Arial, sans-serif" font-size="14" text-anchor="middle" font-weight="normal">交易日</text>
<g transform="translate(24 325.0) rotate(-90)"><text x="0.0" y="0.0" font-family="Arial, sans-serif" font-size="14" text-anchor="middle" font-weight="normal">价格（USD）</text></g>
<text x="550.0" y="650.0" font-family="Arial, sans-serif" font-size="12" text-anchor="middle" font-weight="normal">仅用于展示已提供情景；真实结果可能超出区间。</text>
</svg>
